#!OML:ASF H:\BabyWalks\Project 1\Capture day 1\Session 1\baby.ASF
:FULLY-SPECIFIED
:DEGREES
612
root 38.3181 17.2393 0.632132 -64.0544 87.4942 -62.4416
lowerback 23.6704 0.588285 0.452081
upperback 7.6453 1.40762 -0.608716
thorax -4.75422 0.941438 -1.31611
lowerneck 2.39101 2.51749 5.77312
upperneck -12.3787 3.02772 -8.51065
head -3.8343 1.75964 -3.68342
rclavicle -1.76918e-014 1.47101e-014
rhumerus -44.7609 6.29088 -84.0934
rradius 49.7357
rwrist -0.988814
rhand -12.0733 -17.1567
rfingers 7.12502
rthumb 13.9863 -46.6662
lclavicle -1.76918e-014 1.47101e-014
lhumerus -37.8127 -9.34269 78.7813
lradius 59.3257
lwrist 3.72535
lhand -7.03407 9.78461
lfingers 7.12502
lthumb 18.838 38.8924
rfemur -17.7176 10.4025 20.7961
rtibia 33.0047
rfoot -12.8807 4.63491
rtoes 5.58637
lfemur -16.3028 -3.46435 -13.5981
ltibia 37.5685
lfoot -22.9369 -10.0325
ltoes -4.04233
613
root 38.3552 17.2406 0.640053 -65.9087 87.5849 -64.2584
lowerback 23.6674 0.622924 0.659266
upperback 7.61358 1.50875 -0.4251
thorax -4.78558 0.988662 -1.26382
lowerneck 2.4629 2.44103 5.92051
upperneck -12.2921 2.89162 -8.97104
head -3.81789 1.70992 -3.84574
rclavicle -5.26779e-015 -8.54774e-015
rhumerus -44.4824 6.51126 -83.9635
rradius 49.5271
rwrist -0.918705
rhand -12.0085 -17.0547
rfingers 7.12502
rthumb 14.0488 -46.5599
lclavicle -5.26779e-015 -8.54774e-015
lhumerus -38.2639 -9.12322 79.0439
lradius 58.7689
lwrist 3.48083
lhand -6.91113 9.91875
lfingers 7.12502
lthumb 18.9563 39.015
rfemur -17.5523 10.1939 20.8066
rtibia 33.095
rfoot -13.0702 4.74366
rtoes 5.45177
lfemur -16.0883 -3.4157 -13.6284
ltibia 37.477
lfoot -23.0681 -10.187
ltoes -3.96104
614
root 38.3914 17.246 0.64723 -66.7474 87.7474 -65.096
lowerback 23.6556 0.663994 0.780243
upperback 7.55502 1.59381 -0.281523
thorax -4.84302 1.02662 -1.20152
lowerneck 2.52347 2.37069 6.05878
upperneck -12.1918 2.77007 -9.37364
head -3.79651 1.66433 -3.98886
rclavicle -1.80894e-014 -6.36111e-015
rhumerus -44.2109 6.66554 -83.8241
rradius 49.3385
rwrist -0.825142
rhand -11.8873 -16.9687
rfingers 7.12502
rthumb 14.1656 -46.4658
lclavicle -1.80894e-014 -6.36111e-015
lhumerus -38.7342 -8.93553 79.2788
lradius 58.1522
lwrist 3.24888
lhand -6.69046 9.99736
lfingers 7.12502
lthumb 19.1685 39.0727
rfemur -17.4129 9.95608 20.7098
rtibia 33.1454
rfoot -13.2366 4.9005
rtoes 5.34019
lfemur -15.8519 -3.40105 -13.7559
ltibia 37.2624
lfoot -23.1242 -10.3021
ltoes -3.88188
615
root 38.4265 17.2551 0.654096 -66.8561 87.9683 -65.246
lowerback 23.6237 0.708548 0.834219
upperback 7.4756 1.66388 -0.171791
thorax -4.9142 1.05612 -1.13334
lowerneck 2.56198 2.30433 6.18905
upperneck -12.0777 2.6594 -9.72245
head -3.76831 1.62096 -4.1138
rclavicle -1.70955e-014 -5.1684e-015
rhumerus -43.9468 6.74714 -83.6741
rradius 49.1795
rwrist -0.711971
rhand -11.732 -16.9016
rfingers 7.12502
rthumb 14.3152 -46.3881
lclavicle -1.70955e-014 -5.1684e-015
lhumerus -39.2094 -8.7817 79.4866
lradius 57.4774
lwrist 3.02046
lhand -6.37795 10.011
lfingers 7.12502
lthumb 19.469 39.0563
rfemur -17.3111 9.70152 20.5275
rtibia 33.1632
rfoot -13.3686 5.08154
rtoes 5.27619
lfemur -15.6156 -3.41577 -13.9553
ltibia 36.9462
lfoot -23.1142 -10.3897
ltoes -3.81139
616
root 38.4604 17.2669 0.660949 -66.5904 88.2245 -65.0636
lowerback 23.5758 0.752844 0.851063
upperback 7.37514 1.72143 -0.0880979
thorax -5.00088 1.07851 -1.06868
lowerneck 2.56169 2.24186 6.3136
upperneck -11.9331 2.55897 -10.0237
head -3.7252 1.57898 -4.22211
rclavicle -8.79622e-015 -9.93923e-016
rhumerus -43.7025 6.74863 -83.5121
rradius 49.0634
rwrist -0.583472
rhand -11.5636 -16.8568
rfingers 7.12502
rthumb 14.4775 -46.3318
lclavicle -8.79622e-015 -9.93923e-016
lhumerus -39.6939 -8.66935 79.6706
lradius 56.7575
lwrist 2.79123
lhand -5.98342 9.96786
lfingers 7.12502
lthumb 19.8483 38.9744
rfemur -17.2617 9.44001 20.292
rtibia 33.1884
rfoot -13.4937 5.2719
rtoes 5.24632
lfemur -15.4101 -3.45493 -14.1938
ltibia 36.5908
lfoot -23.0723 -10.4562
ltoes -3.74876
617
root 38.4929 17.2807 0.668175 -66.2506 88.4883 -64.8461
lowerback 23.5139 0.795333 0.857141
upperback 7.25706 1.77147 -0.0203279
thorax -5.09968 1.09643 -1.01299
lowerneck 2.52635 2.18271 6.43
upperneck -11.7616 2.46752 -10.2793
head -3.66887 1.538 -4.31409
rclavicle -2.18663e-015 -1.86361e-015
rhumerus -43.4836 6.68438 -83.3426
rradius 48.9951
rwrist -0.464888
rhand -11.4121 -16.8383
rfingers 7.12502
rthumb 14.6235 -46.3027
lclavicle -2.18663e-015 -1.86361e-015
lhumerus -40.1832 -8.60205 79.8319
lradius 56.0048
lwrist 2.56909
lhand -5.50425 9.88591
lfingers 7.12502
lthumb 20.3089 38.8441
rfemur -17.2449 9.19495 20.038
rtibia 33.1816
rfoot -13.5971 5.45782
rtoes 5.25108
lfemur -15.2343 -3.50968 -14.4349
ltibia 36.1935
lfoot -22.9948 -10.5154
ltoes -3.69328
618
root 38.5245 17.2881 0.675554 -66.2055 88.7413 -64.9528
lowerback 23.4429 0.834801 0.867108
upperback 7.12608 1.81701 0.04169
thorax -5.20779 1.1116 -0.9645
lowerneck 2.45819 2.12697 6.5374
upperneck -11.5688 2.38391 -10.5006
head -3.60112 1.4982 -4.3932
rclavicle 1.54431e-014 3.72721e-015
rhumerus -43.2949 6.56947 -83.1637
rradius 48.9803
rwrist -0.376391
rhand -11.2947 -16.8395
rfingers 7.12502
rthumb 14.7366 -46.2957
lclavicle 1.54431e-014 3.72721e-015
lhumerus -40.6822 -8.56976 79.9769
lradius 55.2396
lwrist 2.35392
lhand -4.92815 9.78985
lfingers 7.12502
lthumb 20.8624 38.6881
rfemur -17.2664 8.97118 19.7889
rtibia 33.1604
rfoot -13.6816 5.63419
rtoes 5.28735
lfemur -15.1071 -3.57299 -14.6554
ltibia 35.7996
lfoot -22.9005 -10.5709
ltoes -3.64683
619
root 38.5548 17.3037 0.683624 -66.997 88.9697 -65.9167
lowerback 23.3661 0.869277 0.888664
upperback 6.9885 1.8584 0.105307
thorax -5.31999 1.12446 -0.919723
lowerneck 2.36747 2.07888 6.63409
upperneck -11.3675 2.31314 -10.6905
head -3.52701 1.46276 -4.46072
rclavicle -3.60297e-015 2.56929e-014
rhumerus -43.1339 6.42041 -82.9791
rradius 49.0236
rwrist -0.338297
rhand -11.2248 -16.8609
rfingers 7.12502
rthumb 14.8039 -46.3121
lclavicle -3.60297e-015 2.56929e-014
lhumerus -41.1859 -8.56362 80.1066
lradius 54.4746
lwrist 2.14717
lhand -4.26476 9.70463
lfingers 7.12502
lthumb 21.4997 38.5314
rfemur -17.2862 8.78022 19.5671
rtibia 33.0982
rfoot -13.7504 5.78758
rtoes 5.35614
lfemur -14.9974 -3.63963 -14.8409
ltibia 35.3975
lfoot -22.8001 -10.6264
ltoes -3.60731
620
root 38.5838 17.3189 0.691882 -69.3951 89.1708 -68.4988
lowerback 23.2878 0.89562 0.923187
upperback 6.85078 1.89279 0.173714
thorax -5.43144 1.13393 -0.875217
lowerneck 2.27045 2.03868 6.72512
upperneck -11.1825 2.25376 -10.8658
head -3.45629 1.43252 -4.52345
rclavicle 2.38045e-014 -1.0138e-014
rhumerus -42.9966 6.2698 -82.7967
rradius 49.124
rwrist -0.381889
rhand -11.2132 -16.8983
rfingers 7.12502
rthumb 14.8151 -46.3487
lclavicle 2.38045e-014 -1.0138e-014
lhumerus -41.691 -8.56705 80.222
lradius 53.7238
lwrist 1.95564
lhand -3.51044 9.64685
lfingers 7.12502
lthumb 22.224 38.3892
rfemur -17.3154 8.61867 19.3741
rtibia 33.0189
rfoot -13.8064 5.92026
rtoes 5.44565
lfemur -14.9196 -3.70935 -14.9896
ltibia 35.0198
lfoot -22.7024 -10.6833
ltoes -3.57588
621
root 38.6119 17.3333 0.700138 -74.0592 89.3368 -73.3483
lowerback 23.2108 0.914366 0.971025
upperback 6.71694 1.92142 0.248208
thorax -5.53919 1.1408 -0.830112
lowerneck 2.17956 2.00769 6.809
upperneck -11.0233 2.20721 -11.0276
head -3.39367 1.40879 -4.58191
rclavicle 1.92821e-014 -1.07344e-014
rhumerus -42.8842 6.13781 -82.6237
rradius 49.2831
rwrist -0.524708
rhand -11.259 -16.9529
rfingers 7.12502
rthumb 14.7709 -46.4065
lclavicle 1.92821e-014 -1.07344e-014
lhumerus -42.1994 -8.57447 80.3232
lradius 52.995
lwrist 1.77573
lhand -2.67675 9.62202
lfingers 7.12502
lthumb 23.0242 38.2668
rfemur -17.3292 8.49278 19.2143
rtibia 32.8919
rfoot -13.8348 6.02933
rtoes 5.56282
lfemur -14.8486 -3.77955 -15.1004
ltibia 34.6397
lfoot -22.5956 -10.7391
ltoes -3.55227
622
root 38.6388 17.3466 0.708409 -82.4477 89.4727 -81.9208
lowerback 23.1361 0.924916 1.02264
upperback 6.59099 1.94165 0.32796
thorax -5.63968 1.14402 -0.779096
lowerneck 2.10286 1.98599 6.88824
upperneck -10.9047 2.17254 -11.1834
head -3.34474 1.392 -4.63925
rclavicle 1.38155e-014 -2.52457e-014
rhumerus -42.7909 6.04197 -82.4638
rradius 49.4977
rwrist -0.770168
rhand -11.3601 -17.019
rfingers 7.12502
rthumb 14.6736 -46.4797
lclavicle 1.38155e-014 -2.52457e-014
lhumerus -42.7031 -8.58096 80.413
lradius 52.2923
lwrist 1.6038
lhand -1.77813 9.64544
lfingers 7.12502
lthumb 23.8862 38.18
rfemur -17.3453 8.39422 19.0773
rtibia 32.7632
rfoot -13.8607 6.11652
rtoes 5.69724
lfemur -14.7992 -3.85522 -15.1851
ltibia 34.2966
lfoot -22.5024 -10.7906
ltoes -3.52904
623
root 38.6645 17.3586 0.716435 -95.8745 89.5668 -95.5243
lowerback 23.0593 0.925707 1.08207
upperback 6.47994 1.95255 0.410929
thorax -5.72285 1.14346 -0.726175
lowerneck 2.04307 1.97264 6.96221
upperneck -10.8338 2.14821 -11.3314
head -3.31217 1.38159 -4.6949
rclavicle -9.64106e-015 -1.47101e-014
rhumerus -42.7102 5.99651 -82.3234
rradius 49.7664
rwrist -1.11541
rhand -11.5027 -17.1012
rfingers 7.12502
rthumb 14.5362 -46.5719
lclavicle -9.64106e-015 -1.47101e-014
lhumerus -43.1932 -8.57832 80.4884
lradius 51.628
lwrist 1.44915
lhand -0.806281 9.74863
lfingers 7.12502
lthumb 24.8179 38.1581
rfemur -17.3585 8.31769 18.9647
rtibia 32.6371
rfoot -13.8903 6.18012
rtoes 5.81705
lfemur -14.7637 -3.93432 -15.2457
ltibia 33.9889
lfoot -22.4242 -10.8372
ltoes -3.50632
624
root 38.6892 17.3695 0.724161 -113.579 89.6076 -113.398
lowerback 22.981 0.917414 1.14838
upperback 6.38376 1.95459 0.495602
thorax -5.78893 1.13935 -0.672604
lowerneck 1.99684 1.96753 7.03413
upperneck -10.8058 2.13383 -11.4765
head -3.29381 1.37735 -4.75072
rclavicle -2.08724e-015 1.43125e-014
rhumerus -42.6424 6.0042 -82.205
rradius 50.0881
rwrist -1.54502
rhand -11.6697 -17.1988
rfingers 7.12502
rthumb 14.3753 -46.681
lclavicle -2.08724e-015 1.43125e-014
lhumerus -43.6698 -8.57268 80.552
lradius 50.9951
lwrist 1.29437
lhand 0.192165 9.9006
lfingers 7.12502
lthumb 25.7744 38.1748
rfemur -17.3694 8.26347 18.875
rtibia 32.5162
rfoot -13.9267 6.21496
rtoes 5.91637
lfemur -14.7397 -4.01641 -15.2853
ltibia 33.7133
lfoot -22.361 -10.8789
ltoes -3.48553
625
root 38.7127 17.3791 0.7315 -131.408 89.5985 -131.385
lowerback 22.899 0.901541 1.21932
upperback 6.30664 1.949 0.5778
thorax -5.83213 1.1325 -0.621843
lowerneck 1.97076 1.96799 7.09876
upperneck -10.8273 2.12588 -11.6108
head -3.29321 1.37773 -4.80358
rclavicle 8.94531e-016 0
rhumerus -42.5819 6.06854 -82.1111
rradius 50.4531
rwrist -2.04133
rhand -11.8466 -17.3016
rfingers 7.12502
rthumb 14.2048 -46.7959
lclavicle 8.94531e-016 0
lhumerus -44.1235 -8.56619 80.6044
lradius 50.3917
lwrist 1.13412
lhand 1.20131 10.1033
lfingers 7.12502
lthumb 26.7405 38.2337
rfemur -17.375 8.229 18.8012
rtibia 32.4009
rfoot -13.9712 6.21875
rtoes 5.97885
lfemur -14.7207 -4.09872 -15.3131
ltibia 33.4673
lfoot -22.3138 -10.9165
ltoes -3.46227
